<svg xmlns="http://www.w3.org/2000/svg" width="300" height="76" viewBox="0 0 300 76" fill="none">
<g id="logo">
<g id="icon">
<path id="Vector" fill-rule="evenodd" clip-rule="evenodd" d="M75 30.4967V38.2828C75 42.8434 74.205 48.0854 72.6278 52.9826C71.0689 57.823 68.5876 62.7746 64.9551 66.3275C58.199 72.8628 49.516 76 39.3593 76C28.1496 76 18.5967 72.394 11.1218 65.0026C3.71136 57.675 0 48.5678 0 38C0 27.5136 3.63408 18.4507 10.9019 11.1232C18.2733 3.69274 27.5706 0 38.4297 0C45.0817 0 51.2896 1.58371 56.957 4.77327C62.6396 7.93645 67.1164 12.2257 70.2522 17.6339L73.4599 23.1662L61.9101 26.22L60.0305 22.8745C58.1319 19.4953 55.3763 17.0777 51.2522 14.794L51.2303 14.7819L51.2086 14.7696C47.3342 12.5731 43.1066 11.4666 38.4297 11.4666C30.567 11.4666 24.3145 14.0282 19.2985 19.0859C14.2952 24.1922 11.7822 30.392 11.7822 38C11.7822 45.5767 14.3343 51.7651 19.4485 56.878C24.5616 61.9297 31.0628 64.5334 39.3593 64.5334C46.7056 64.5334 52.2915 62.3831 56.563 58.3613C58.3894 56.6129 60.0839 53.5588 61.3429 49.7039C61.8156 48.2563 62.2032 46.7686 62.506 45.3008L53.3127 47.5535L43.7361 45.0289V53.698H32.4456V30.4967L53.7228 35.7745L75 30.4967Z" fill="#5DC863"></path>
</g>
<g  id="text" >
<g id="GamifyCat">
<path d="M125.369 36.8158V38.9965C125.369 43.0349 124.076 46.3059 121.492 48.8097C118.907 51.3135 115.569 52.5654 111.477 52.5654C107.115 52.5654 103.494 51.152 100.613 48.3251C97.7596 45.4713 96.3328 41.9984 96.3328 37.9062C96.3328 33.787 97.7462 30.3006 100.573 27.4468C103.427 24.593 106.954 23.1662 111.154 23.1662C113.792 23.1662 116.201 23.7719 118.382 24.9834C120.563 26.168 122.259 27.7564 123.471 29.7487L118.705 32.4948C118.032 31.3371 117.009 30.3948 115.636 29.6679C114.29 28.941 112.782 28.5775 111.113 28.5775C108.421 28.5775 106.2 29.466 104.45 31.2429C102.727 32.9928 101.865 35.2139 101.865 37.9062C101.865 40.5715 102.74 42.7791 104.49 44.5291C106.267 46.2521 108.609 47.1136 111.517 47.1136C113.671 47.1136 115.448 46.6425 116.848 45.7002C118.275 44.731 119.244 43.4118 119.755 41.7426H111.194V36.8158H125.369Z" fill="white"></path>
<path d="M144.436 31.8082H149.645V52H144.436V49.6174C142.874 51.5827 140.68 52.5654 137.853 52.5654C135.161 52.5654 132.846 51.5423 130.907 49.4962C128.996 47.4232 128.04 44.8925 128.04 41.9041C128.04 38.9157 128.996 36.3985 130.907 34.3524C132.846 32.2794 135.161 31.2429 137.853 31.2429C140.68 31.2429 142.874 32.2255 144.436 34.1909V31.8082ZM134.825 46.0233C135.875 47.0732 137.207 47.5982 138.823 47.5982C140.438 47.5982 141.771 47.0732 142.821 46.0233C143.897 44.9464 144.436 43.5733 144.436 41.9041C144.436 40.2349 143.897 38.8754 142.821 37.8254C141.771 36.7485 140.438 36.21 138.823 36.21C137.207 36.21 135.875 36.7485 134.825 37.8254C133.775 38.8754 133.25 40.2349 133.25 41.9041C133.25 43.5733 133.775 44.9464 134.825 46.0233Z" fill="white"></path>
<path d="M176.701 31.2429C179.017 31.2429 180.861 31.9967 182.234 33.5043C183.634 35.012 184.334 37.0312 184.334 39.5619V52H179.124V39.9253C179.124 38.7138 178.828 37.7715 178.236 37.0985C177.644 36.4254 176.809 36.0889 175.732 36.0889C174.548 36.0889 173.619 36.4793 172.946 37.26C172.3 38.0408 171.977 39.1715 171.977 40.6522V52H166.767V39.9253C166.767 38.7138 166.471 37.7715 165.879 37.0985C165.286 36.4254 164.452 36.0889 163.375 36.0889C162.217 36.0889 161.288 36.4793 160.588 37.26C159.915 38.0408 159.579 39.1715 159.579 40.6522V52H154.369V31.8082H159.579V33.9486C160.79 32.1448 162.661 31.2429 165.192 31.2429C167.669 31.2429 169.5 32.2121 170.684 34.1505C172.03 32.2121 174.036 31.2429 176.701 31.2429Z" fill="white"></path>
<path d="M191.343 29.3852C190.481 29.3852 189.728 29.0756 189.082 28.4564C188.462 27.8103 188.153 27.0564 188.153 26.1949C188.153 25.3334 188.462 24.5796 189.082 23.9334C189.728 23.2873 190.481 22.9642 191.343 22.9642C192.231 22.9642 192.985 23.2873 193.604 23.9334C194.251 24.5796 194.574 25.3334 194.574 26.1949C194.574 27.0564 194.251 27.8103 193.604 28.4564C192.985 29.0756 192.231 29.3852 191.343 29.3852ZM188.758 52V31.8082H193.968V52H188.758Z" fill="white"></path>
<path d="M209.599 28.1737C206.745 27.9583 205.319 29.1025 205.319 31.6063V31.8082H209.599V36.8158H205.319V52H200.109V36.8158H197.201V31.8082H200.109V31.6063C200.109 28.7525 200.903 26.5853 202.492 25.1046C204.08 23.6238 206.449 22.9777 209.599 23.1662V28.1737Z" fill="white"></path>
<path d="M225.941 31.8082H231.514L224.164 52C223.114 54.9076 221.714 57.0076 219.964 58.2999C218.241 59.6191 216.087 60.2113 213.503 60.0767V55.2307C214.902 55.2576 216.006 54.9615 216.814 54.3423C217.649 53.7231 218.308 52.7269 218.793 51.3539L210.514 31.8082H216.208L221.458 45.3771L225.941 31.8082Z" fill="white"></path>
<path d="M247.642 52.5654C243.389 52.5654 239.875 51.152 237.102 48.3251C234.329 45.4983 232.943 42.0118 232.943 37.8658C232.943 33.6928 234.329 30.2064 237.102 27.4064C239.875 24.5796 243.389 23.1662 247.642 23.1662C250.2 23.1662 252.556 23.7719 254.71 24.9834C256.89 26.168 258.586 27.7833 259.798 29.8294L254.992 32.6159C254.292 31.3506 253.296 30.3679 252.004 29.6679C250.712 28.941 249.258 28.5775 247.642 28.5775C244.896 28.5775 242.675 29.4391 240.979 31.1621C239.31 32.8851 238.475 35.1197 238.475 37.8658C238.475 40.5849 239.31 42.806 240.979 44.5291C242.675 46.2521 244.896 47.1136 247.642 47.1136C249.258 47.1136 250.712 46.7636 252.004 46.0636C253.323 45.3367 254.319 44.3541 254.992 43.1156L259.798 45.9021C258.586 47.9482 256.904 49.577 254.75 50.7885C252.596 51.9731 250.227 52.5654 247.642 52.5654Z" fill="white"></path>
<path d="M278.443 31.8082H283.653V52H278.443V49.6174C276.882 51.5827 274.687 52.5654 271.861 52.5654C269.168 52.5654 266.853 51.5423 264.915 49.4962C263.003 47.4232 262.047 44.8925 262.047 41.9041C262.047 38.9157 263.003 36.3985 264.915 34.3524C266.853 32.2794 269.168 31.2429 271.861 31.2429C274.687 31.2429 276.882 32.2255 278.443 34.1909V31.8082ZM268.832 46.0233C269.882 47.0732 271.214 47.5982 272.83 47.5982C274.445 47.5982 275.778 47.0732 276.828 46.0233C277.905 44.9464 278.443 43.5733 278.443 41.9041C278.443 40.2349 277.905 38.8754 276.828 37.8254C275.778 36.7485 274.445 36.21 272.83 36.21C271.214 36.21 269.882 36.7485 268.832 37.8254C267.782 38.8754 267.257 40.2349 267.257 41.9041C267.257 43.5733 267.782 44.9464 268.832 46.0233Z" fill="white"></path>
<path d="M299.926 36.8158H295.363V45.2156C295.363 45.9156 295.538 46.4271 295.888 46.7502C296.238 47.0732 296.749 47.2617 297.422 47.3155C298.095 47.3424 298.93 47.329 299.926 47.2751V52C296.346 52.4039 293.815 52.0673 292.334 50.9904C290.88 49.9135 290.153 47.9886 290.153 45.2156V36.8158H286.64V31.8082H290.153V27.7295L295.363 26.1545V31.8082H299.926V36.8158Z" fill="white"></path>
</g>
</g>
</g>
</svg>